<mxfile host="app.diagrams.net" modified="2020-10-20T08:00:08.050Z" agent="5.0 (Windows NT 10.0; Win64; x64) AppleWebKit/537.36 (KHTML, like Gecko) Chrome/70.0.3538.77 Safari/537.36" etag="w2C0cTGJccEuhnpxZgFN" version="13.8.0" type="github" pages="2">
  <diagram id="d6cZBauO_cntK9Y2CSTc" name="Page-1">
    <mxGraphModel dx="868" dy="451" grid="1" gridSize="10" guides="1" tooltips="1" connect="1" arrows="1" fold="1" page="1" pageScale="1" pageWidth="827" pageHeight="1169" math="0" shadow="0">
      <root>
        <mxCell id="0" />
        <mxCell id="1" parent="0" />
        <mxCell id="UXMJ1x9uuqICj5ODlq46-15" value="业务方" style="swimlane;" vertex="1" parent="1">
          <mxGeometry x="40" y="60" width="160" height="920" as="geometry" />
        </mxCell>
        <mxCell id="UXMJ1x9uuqICj5ODlq46-50" style="edgeStyle=orthogonalEdgeStyle;rounded=0;orthogonalLoop=1;jettySize=auto;html=1;exitX=0.5;exitY=1;exitDx=0;exitDy=0;entryX=0.114;entryY=-0.133;entryDx=0;entryDy=0;entryPerimeter=0;" edge="1" parent="UXMJ1x9uuqICj5ODlq46-15" source="UXMJ1x9uuqICj5ODlq46-19" target="UXMJ1x9uuqICj5ODlq46-22">
          <mxGeometry relative="1" as="geometry" />
        </mxCell>
        <mxCell id="UXMJ1x9uuqICj5ODlq46-19" value="业务需求" style="rounded=1;whiteSpace=wrap;html=1;absoluteArcSize=1;arcSize=14;strokeWidth=2;gradientColor=#7ea6e0;fillColor=#dae8fc;strokeColor=#6c8ebf;" vertex="1" parent="UXMJ1x9uuqICj5ODlq46-15">
          <mxGeometry x="30" y="40" width="100" height="30" as="geometry" />
        </mxCell>
        <mxCell id="UXMJ1x9uuqICj5ODlq46-22" value="需求沟通/预审" style="rounded=1;whiteSpace=wrap;html=1;absoluteArcSize=1;arcSize=14;strokeWidth=2;gradientColor=#7ea6e0;fillColor=#dae8fc;strokeColor=#6c8ebf;" vertex="1" parent="UXMJ1x9uuqICj5ODlq46-15">
          <mxGeometry x="30" y="110" width="420" height="30" as="geometry" />
        </mxCell>
        <mxCell id="UXMJ1x9uuqICj5ODlq46-16" value="产品经理/技术负责人" style="swimlane;" vertex="1" parent="1">
          <mxGeometry x="200" y="60" width="160" height="920" as="geometry" />
        </mxCell>
        <mxCell id="UXMJ1x9uuqICj5ODlq46-69" style="edgeStyle=orthogonalEdgeStyle;rounded=0;orthogonalLoop=1;jettySize=auto;html=1;exitX=0.5;exitY=1;exitDx=0;exitDy=0;entryX=0.5;entryY=0;entryDx=0;entryDy=0;" edge="1" parent="UXMJ1x9uuqICj5ODlq46-16" source="UXMJ1x9uuqICj5ODlq46-46" target="UXMJ1x9uuqICj5ODlq46-47">
          <mxGeometry relative="1" as="geometry" />
        </mxCell>
        <mxCell id="UXMJ1x9uuqICj5ODlq46-46" value="提审" style="rounded=1;whiteSpace=wrap;html=1;absoluteArcSize=1;arcSize=14;strokeWidth=2;gradientColor=#ffd966;fillColor=#fff2cc;strokeColor=#d6b656;" vertex="1" parent="UXMJ1x9uuqICj5ODlq46-16">
          <mxGeometry x="30" y="750" width="100" height="30" as="geometry" />
        </mxCell>
        <mxCell id="UXMJ1x9uuqICj5ODlq46-70" style="edgeStyle=orthogonalEdgeStyle;rounded=0;orthogonalLoop=1;jettySize=auto;html=1;exitX=0.5;exitY=1;exitDx=0;exitDy=0;entryX=0.5;entryY=0;entryDx=0;entryDy=0;" edge="1" parent="UXMJ1x9uuqICj5ODlq46-16" source="UXMJ1x9uuqICj5ODlq46-47" target="UXMJ1x9uuqICj5ODlq46-48">
          <mxGeometry relative="1" as="geometry" />
        </mxCell>
        <mxCell id="UXMJ1x9uuqICj5ODlq46-47" value="灰度" style="rounded=1;whiteSpace=wrap;html=1;absoluteArcSize=1;arcSize=14;strokeWidth=2;gradientColor=#ffd966;fillColor=#fff2cc;strokeColor=#d6b656;" vertex="1" parent="UXMJ1x9uuqICj5ODlq46-16">
          <mxGeometry x="30" y="810" width="100" height="30" as="geometry" />
        </mxCell>
        <mxCell id="UXMJ1x9uuqICj5ODlq46-48" value="全量" style="rounded=1;whiteSpace=wrap;html=1;absoluteArcSize=1;arcSize=14;strokeWidth=2;gradientColor=#ffd966;fillColor=#fff2cc;strokeColor=#d6b656;" vertex="1" parent="UXMJ1x9uuqICj5ODlq46-16">
          <mxGeometry x="30" y="860" width="100" height="30" as="geometry" />
        </mxCell>
        <mxCell id="UXMJ1x9uuqICj5ODlq46-68" style="edgeStyle=orthogonalEdgeStyle;rounded=0;orthogonalLoop=1;jettySize=auto;html=1;exitX=0.5;exitY=1;exitDx=0;exitDy=0;entryX=0.5;entryY=0;entryDx=0;entryDy=0;" edge="1" parent="UXMJ1x9uuqICj5ODlq46-16" source="UXMJ1x9uuqICj5ODlq46-49" target="UXMJ1x9uuqICj5ODlq46-46">
          <mxGeometry relative="1" as="geometry" />
        </mxCell>
        <mxCell id="UXMJ1x9uuqICj5ODlq46-49" value="发布" style="rounded=1;whiteSpace=wrap;html=1;absoluteArcSize=1;arcSize=14;strokeWidth=2;gradientColor=#ffd966;fillColor=#fff2cc;strokeColor=#d6b656;" vertex="1" parent="UXMJ1x9uuqICj5ODlq46-16">
          <mxGeometry x="30" y="690" width="100" height="30" as="geometry" />
        </mxCell>
        <mxCell id="UXMJ1x9uuqICj5ODlq46-17" value="RD" style="swimlane;" vertex="1" parent="1">
          <mxGeometry x="360" y="60" width="160" height="920" as="geometry" />
        </mxCell>
        <mxCell id="UXMJ1x9uuqICj5ODlq46-56" style="edgeStyle=orthogonalEdgeStyle;rounded=0;orthogonalLoop=1;jettySize=auto;html=1;entryX=0.5;entryY=0;entryDx=0;entryDy=0;exitX=0.638;exitY=0.967;exitDx=0;exitDy=0;exitPerimeter=0;" edge="1" parent="UXMJ1x9uuqICj5ODlq46-17" source="UXMJ1x9uuqICj5ODlq46-25" target="UXMJ1x9uuqICj5ODlq46-26">
          <mxGeometry relative="1" as="geometry" />
        </mxCell>
        <mxCell id="UXMJ1x9uuqICj5ODlq46-25" value="需求评审" style="rounded=1;whiteSpace=wrap;html=1;absoluteArcSize=1;arcSize=14;strokeWidth=2;gradientColor=#7ea6e0;fillColor=#dae8fc;strokeColor=#6c8ebf;glass=0;sketch=0;" vertex="1" parent="UXMJ1x9uuqICj5ODlq46-17">
          <mxGeometry x="-290" y="190" width="580" height="30" as="geometry" />
        </mxCell>
        <mxCell id="UXMJ1x9uuqICj5ODlq46-57" style="edgeStyle=orthogonalEdgeStyle;rounded=0;orthogonalLoop=1;jettySize=auto;html=1;exitX=0.5;exitY=1;exitDx=0;exitDy=0;entryX=0.5;entryY=0;entryDx=0;entryDy=0;" edge="1" parent="UXMJ1x9uuqICj5ODlq46-17" source="UXMJ1x9uuqICj5ODlq46-26" target="UXMJ1x9uuqICj5ODlq46-31">
          <mxGeometry relative="1" as="geometry" />
        </mxCell>
        <mxCell id="UXMJ1x9uuqICj5ODlq46-26" value="技术评审" style="rounded=1;whiteSpace=wrap;html=1;absoluteArcSize=1;arcSize=14;strokeWidth=2;gradientColor=#97d077;fillColor=#d5e8d4;strokeColor=#82b366;" vertex="1" parent="UXMJ1x9uuqICj5ODlq46-17">
          <mxGeometry x="30" y="260" width="100" height="30" as="geometry" />
        </mxCell>
        <mxCell id="UXMJ1x9uuqICj5ODlq46-31" value="开发排期" style="rounded=1;whiteSpace=wrap;html=1;absoluteArcSize=1;arcSize=14;strokeWidth=2;gradientColor=#97d077;fillColor=#d5e8d4;strokeColor=#82b366;" vertex="1" parent="UXMJ1x9uuqICj5ODlq46-17">
          <mxGeometry x="30" y="320" width="100" height="30" as="geometry" />
        </mxCell>
        <mxCell id="UXMJ1x9uuqICj5ODlq46-59" style="edgeStyle=orthogonalEdgeStyle;rounded=0;orthogonalLoop=1;jettySize=auto;html=1;exitX=0.5;exitY=1;exitDx=0;exitDy=0;entryX=0.5;entryY=0;entryDx=0;entryDy=0;" edge="1" parent="UXMJ1x9uuqICj5ODlq46-17" source="UXMJ1x9uuqICj5ODlq46-33" target="UXMJ1x9uuqICj5ODlq46-34">
          <mxGeometry relative="1" as="geometry" />
        </mxCell>
        <mxCell id="UXMJ1x9uuqICj5ODlq46-33" value="开发" style="rounded=1;whiteSpace=wrap;html=1;absoluteArcSize=1;arcSize=14;strokeWidth=2;gradientColor=#97d077;fillColor=#d5e8d4;strokeColor=#82b366;" vertex="1" parent="UXMJ1x9uuqICj5ODlq46-17">
          <mxGeometry x="30" y="382" width="100" height="30" as="geometry" />
        </mxCell>
        <mxCell id="UXMJ1x9uuqICj5ODlq46-60" style="edgeStyle=orthogonalEdgeStyle;rounded=0;orthogonalLoop=1;jettySize=auto;html=1;exitX=0.5;exitY=1;exitDx=0;exitDy=0;entryX=0.5;entryY=0;entryDx=0;entryDy=0;" edge="1" parent="UXMJ1x9uuqICj5ODlq46-17" source="UXMJ1x9uuqICj5ODlq46-34" target="UXMJ1x9uuqICj5ODlq46-35">
          <mxGeometry relative="1" as="geometry" />
        </mxCell>
        <mxCell id="UXMJ1x9uuqICj5ODlq46-34" value="联调" style="rounded=1;whiteSpace=wrap;html=1;absoluteArcSize=1;arcSize=14;strokeWidth=2;gradientColor=#97d077;fillColor=#d5e8d4;strokeColor=#82b366;" vertex="1" parent="UXMJ1x9uuqICj5ODlq46-17">
          <mxGeometry x="30" y="440" width="100" height="30" as="geometry" />
        </mxCell>
        <mxCell id="UXMJ1x9uuqICj5ODlq46-35" value="提测" style="rounded=1;whiteSpace=wrap;html=1;absoluteArcSize=1;arcSize=14;strokeWidth=2;gradientColor=#97d077;fillColor=#d5e8d4;strokeColor=#82b366;" vertex="1" parent="UXMJ1x9uuqICj5ODlq46-17">
          <mxGeometry x="30" y="500" width="100" height="30" as="geometry" />
        </mxCell>
        <mxCell id="UXMJ1x9uuqICj5ODlq46-44" value="体验/验收" style="rounded=1;whiteSpace=wrap;html=1;absoluteArcSize=1;arcSize=14;strokeWidth=2;gradientColor=#97d077;fillColor=#d5e8d4;strokeColor=#82b366;glass=0;sketch=0;" vertex="1" parent="UXMJ1x9uuqICj5ODlq46-17">
          <mxGeometry x="-290" y="560" width="580" height="30" as="geometry" />
        </mxCell>
        <mxCell id="UXMJ1x9uuqICj5ODlq46-52" value="技术需求" style="rounded=1;whiteSpace=wrap;html=1;absoluteArcSize=1;arcSize=14;strokeWidth=2;gradientColor=#7ea6e0;fillColor=#dae8fc;strokeColor=#6c8ebf;" vertex="1" parent="UXMJ1x9uuqICj5ODlq46-17">
          <mxGeometry x="30" y="40" width="100" height="30" as="geometry" />
        </mxCell>
        <mxCell id="UXMJ1x9uuqICj5ODlq46-18" value="QA" style="swimlane;" vertex="1" parent="1">
          <mxGeometry x="520" y="60" width="160" height="920" as="geometry" />
        </mxCell>
        <mxCell id="UXMJ1x9uuqICj5ODlq46-62" style="edgeStyle=orthogonalEdgeStyle;rounded=0;orthogonalLoop=1;jettySize=auto;html=1;exitX=0.5;exitY=1;exitDx=0;exitDy=0;entryX=0.5;entryY=0;entryDx=0;entryDy=0;" edge="1" parent="UXMJ1x9uuqICj5ODlq46-18" source="UXMJ1x9uuqICj5ODlq46-36" target="UXMJ1x9uuqICj5ODlq46-39">
          <mxGeometry relative="1" as="geometry" />
        </mxCell>
        <mxCell id="UXMJ1x9uuqICj5ODlq46-36" value="用例评审" style="rounded=1;whiteSpace=wrap;html=1;absoluteArcSize=1;arcSize=14;strokeWidth=2;gradientColor=#97d077;fillColor=#d5e8d4;strokeColor=#82b366;" vertex="1" parent="UXMJ1x9uuqICj5ODlq46-18">
          <mxGeometry x="30" y="260" width="100" height="30" as="geometry" />
        </mxCell>
        <mxCell id="UXMJ1x9uuqICj5ODlq46-39" value="测试排期" style="rounded=1;whiteSpace=wrap;html=1;absoluteArcSize=1;arcSize=14;strokeWidth=2;gradientColor=#97d077;fillColor=#d5e8d4;strokeColor=#82b366;" vertex="1" parent="UXMJ1x9uuqICj5ODlq46-18">
          <mxGeometry x="30" y="320" width="100" height="30" as="geometry" />
        </mxCell>
        <mxCell id="UXMJ1x9uuqICj5ODlq46-43" value="测试执行" style="rounded=1;whiteSpace=wrap;html=1;absoluteArcSize=1;arcSize=14;strokeWidth=2;gradientColor=#97d077;fillColor=#d5e8d4;strokeColor=#82b366;" vertex="1" parent="UXMJ1x9uuqICj5ODlq46-18">
          <mxGeometry x="30" y="500" width="100" height="30" as="geometry" />
        </mxCell>
        <mxCell id="UXMJ1x9uuqICj5ODlq46-45" value="测试报告" style="rounded=1;whiteSpace=wrap;html=1;absoluteArcSize=1;arcSize=14;strokeWidth=2;gradientColor=#ffd966;fillColor=#fff2cc;strokeColor=#d6b656;" vertex="1" parent="UXMJ1x9uuqICj5ODlq46-18">
          <mxGeometry x="30" y="630" width="100" height="30" as="geometry" />
        </mxCell>
        <mxCell id="UXMJ1x9uuqICj5ODlq46-53" style="edgeStyle=orthogonalEdgeStyle;rounded=0;orthogonalLoop=1;jettySize=auto;html=1;" edge="1" parent="1" source="UXMJ1x9uuqICj5ODlq46-19" target="UXMJ1x9uuqICj5ODlq46-52">
          <mxGeometry relative="1" as="geometry" />
        </mxCell>
        <mxCell id="UXMJ1x9uuqICj5ODlq46-54" style="edgeStyle=orthogonalEdgeStyle;rounded=0;orthogonalLoop=1;jettySize=auto;html=1;entryX=0.881;entryY=0;entryDx=0;entryDy=0;entryPerimeter=0;" edge="1" parent="1" source="UXMJ1x9uuqICj5ODlq46-52" target="UXMJ1x9uuqICj5ODlq46-22">
          <mxGeometry relative="1" as="geometry" />
        </mxCell>
        <mxCell id="UXMJ1x9uuqICj5ODlq46-55" style="edgeStyle=orthogonalEdgeStyle;rounded=0;orthogonalLoop=1;jettySize=auto;html=1;exitX=0.5;exitY=1;exitDx=0;exitDy=0;entryX=0.362;entryY=0;entryDx=0;entryDy=0;entryPerimeter=0;" edge="1" parent="1" source="UXMJ1x9uuqICj5ODlq46-22" target="UXMJ1x9uuqICj5ODlq46-25">
          <mxGeometry relative="1" as="geometry" />
        </mxCell>
        <mxCell id="UXMJ1x9uuqICj5ODlq46-58" style="edgeStyle=orthogonalEdgeStyle;rounded=0;orthogonalLoop=1;jettySize=auto;html=1;exitX=0.5;exitY=1;exitDx=0;exitDy=0;" edge="1" parent="1" source="UXMJ1x9uuqICj5ODlq46-31">
          <mxGeometry relative="1" as="geometry">
            <mxPoint x="440" y="440" as="targetPoint" />
          </mxGeometry>
        </mxCell>
        <mxCell id="UXMJ1x9uuqICj5ODlq46-61" style="edgeStyle=orthogonalEdgeStyle;rounded=0;orthogonalLoop=1;jettySize=auto;html=1;" edge="1" parent="1" source="UXMJ1x9uuqICj5ODlq46-26" target="UXMJ1x9uuqICj5ODlq46-36">
          <mxGeometry relative="1" as="geometry" />
        </mxCell>
        <mxCell id="UXMJ1x9uuqICj5ODlq46-64" style="edgeStyle=orthogonalEdgeStyle;rounded=0;orthogonalLoop=1;jettySize=auto;html=1;exitX=1;exitY=0.5;exitDx=0;exitDy=0;" edge="1" parent="1" source="UXMJ1x9uuqICj5ODlq46-35" target="UXMJ1x9uuqICj5ODlq46-43">
          <mxGeometry relative="1" as="geometry" />
        </mxCell>
        <mxCell id="UXMJ1x9uuqICj5ODlq46-65" style="edgeStyle=orthogonalEdgeStyle;rounded=0;orthogonalLoop=1;jettySize=auto;html=1;exitX=0.5;exitY=1;exitDx=0;exitDy=0;entryX=0.917;entryY=-0.033;entryDx=0;entryDy=0;entryPerimeter=0;" edge="1" parent="1" source="UXMJ1x9uuqICj5ODlq46-43" target="UXMJ1x9uuqICj5ODlq46-44">
          <mxGeometry relative="1" as="geometry" />
        </mxCell>
        <mxCell id="UXMJ1x9uuqICj5ODlq46-66" style="edgeStyle=orthogonalEdgeStyle;rounded=0;orthogonalLoop=1;jettySize=auto;html=1;entryX=0.5;entryY=0;entryDx=0;entryDy=0;exitX=0.909;exitY=1.033;exitDx=0;exitDy=0;exitPerimeter=0;" edge="1" parent="1" source="UXMJ1x9uuqICj5ODlq46-44" target="UXMJ1x9uuqICj5ODlq46-45">
          <mxGeometry relative="1" as="geometry">
            <Array as="points">
              <mxPoint x="600" y="651" />
            </Array>
          </mxGeometry>
        </mxCell>
        <mxCell id="UXMJ1x9uuqICj5ODlq46-67" style="edgeStyle=orthogonalEdgeStyle;rounded=0;orthogonalLoop=1;jettySize=auto;html=1;exitX=0;exitY=0.5;exitDx=0;exitDy=0;entryX=0.5;entryY=0;entryDx=0;entryDy=0;" edge="1" parent="1" source="UXMJ1x9uuqICj5ODlq46-45" target="UXMJ1x9uuqICj5ODlq46-49">
          <mxGeometry relative="1" as="geometry" />
        </mxCell>
      </root>
    </mxGraphModel>
  </diagram>
  <diagram id="TAvE_FLscF1FH4FhMFAF" name="Page-2">
    <mxGraphModel dx="868" dy="1620" grid="1" gridSize="10" guides="1" tooltips="1" connect="1" arrows="1" fold="1" page="1" pageScale="1" pageWidth="827" pageHeight="1169" math="0" shadow="0">
      <root>
        <mxCell id="BfjbEZ_vfMmPKyawNAkc-0" />
        <mxCell id="BfjbEZ_vfMmPKyawNAkc-1" parent="BfjbEZ_vfMmPKyawNAkc-0" />
        <mxCell id="fHw0rM8FMFf9TJYtuR3b-0" value="Pool" style="swimlane;html=1;childLayout=stackLayout;resizeParent=1;resizeParentMax=0;startSize=20;horizontal=0;horizontalStack=1;" vertex="1" parent="BfjbEZ_vfMmPKyawNAkc-1">
          <mxGeometry x="100" y="-10" width="540" height="720" as="geometry" />
        </mxCell>
        <mxCell id="fHw0rM8FMFf9TJYtuR3b-1" value="WIKI" style="swimlane;html=1;startSize=20;" vertex="1" parent="fHw0rM8FMFf9TJYtuR3b-0">
          <mxGeometry x="20" width="170" height="720" as="geometry" />
        </mxCell>
        <mxCell id="fHw0rM8FMFf9TJYtuR3b-2" value="测试用例" style="strokeWidth=2;html=1;shape=mxgraph.flowchart.document2;whiteSpace=wrap;size=0.25;fillColor=#ffff88;strokeColor=#36393d;" vertex="1" parent="fHw0rM8FMFf9TJYtuR3b-1">
          <mxGeometry x="35" y="450" width="100" height="40" as="geometry" />
        </mxCell>
        <mxCell id="fHw0rM8FMFf9TJYtuR3b-3" value="需求评审结论" style="rounded=1;whiteSpace=wrap;html=1;absoluteArcSize=1;arcSize=14;strokeWidth=2;fillColor=#dae8fc;strokeColor=#6c8ebf;gradientColor=#7ea6e0;" vertex="1" parent="fHw0rM8FMFf9TJYtuR3b-1">
          <mxGeometry x="35" y="170" width="100" height="30" as="geometry" />
        </mxCell>
        <mxCell id="fHw0rM8FMFf9TJYtuR3b-4" style="edgeStyle=orthogonalEdgeStyle;rounded=0;orthogonalLoop=1;jettySize=auto;html=1;dashed=1;endArrow=blockThin;endFill=1;dashPattern=1 1;" edge="1" parent="fHw0rM8FMFf9TJYtuR3b-1" source="fHw0rM8FMFf9TJYtuR3b-5" target="fHw0rM8FMFf9TJYtuR3b-7">
          <mxGeometry relative="1" as="geometry" />
        </mxCell>
        <mxCell id="fHw0rM8FMFf9TJYtuR3b-5" value="录入需求" style="rounded=1;whiteSpace=wrap;html=1;absoluteArcSize=1;arcSize=14;strokeWidth=2;fillColor=#dae8fc;strokeColor=#6c8ebf;gradientColor=#7ea6e0;" vertex="1" parent="fHw0rM8FMFf9TJYtuR3b-1">
          <mxGeometry x="35" y="50" width="100" height="30" as="geometry" />
        </mxCell>
        <mxCell id="fHw0rM8FMFf9TJYtuR3b-6" style="edgeStyle=orthogonalEdgeStyle;rounded=0;orthogonalLoop=1;jettySize=auto;html=1;exitX=0.5;exitY=1;exitDx=0;exitDy=0;entryX=0.5;entryY=0;entryDx=0;entryDy=0;dashed=1;endArrow=blockThin;endFill=1;dashPattern=1 1;" edge="1" parent="fHw0rM8FMFf9TJYtuR3b-1" source="fHw0rM8FMFf9TJYtuR3b-7" target="fHw0rM8FMFf9TJYtuR3b-3">
          <mxGeometry relative="1" as="geometry" />
        </mxCell>
        <mxCell id="fHw0rM8FMFf9TJYtuR3b-7" value="录入PRD" style="rounded=1;whiteSpace=wrap;html=1;absoluteArcSize=1;arcSize=14;strokeWidth=2;fillColor=#dae8fc;strokeColor=#6c8ebf;gradientColor=#7ea6e0;" vertex="1" parent="fHw0rM8FMFf9TJYtuR3b-1">
          <mxGeometry x="35" y="110" width="100" height="30" as="geometry" />
        </mxCell>
        <mxCell id="fHw0rM8FMFf9TJYtuR3b-8" value="回顾复盘" style="rounded=1;whiteSpace=wrap;html=1;absoluteArcSize=1;arcSize=14;strokeWidth=2;gradientColor=#b3b3b3;fillColor=#f5f5f5;strokeColor=#666666;" vertex="1" parent="fHw0rM8FMFf9TJYtuR3b-1">
          <mxGeometry x="35" y="610" width="100" height="30" as="geometry" />
        </mxCell>
        <mxCell id="fHw0rM8FMFf9TJYtuR3b-9" value="技术文档" style="strokeWidth=2;html=1;shape=mxgraph.flowchart.document2;whiteSpace=wrap;size=0.25;fillColor=#ffff88;strokeColor=#36393d;" vertex="1" parent="fHw0rM8FMFf9TJYtuR3b-1">
          <mxGeometry x="35" y="380" width="100" height="40" as="geometry" />
        </mxCell>
        <mxCell id="fHw0rM8FMFf9TJYtuR3b-10" value="JIRA" style="swimlane;html=1;startSize=20;" vertex="1" parent="fHw0rM8FMFf9TJYtuR3b-0">
          <mxGeometry x="190" width="170" height="720" as="geometry" />
        </mxCell>
        <mxCell id="fHw0rM8FMFf9TJYtuR3b-11" style="edgeStyle=orthogonalEdgeStyle;rounded=0;orthogonalLoop=1;jettySize=auto;html=1;exitX=0.5;exitY=1;exitDx=0;exitDy=0;entryX=0.5;entryY=0;entryDx=0;entryDy=0;dashed=1;endArrow=blockThin;endFill=1;dashPattern=1 1;" edge="1" parent="fHw0rM8FMFf9TJYtuR3b-10" source="fHw0rM8FMFf9TJYtuR3b-12" target="fHw0rM8FMFf9TJYtuR3b-14">
          <mxGeometry relative="1" as="geometry" />
        </mxCell>
        <mxCell id="fHw0rM8FMFf9TJYtuR3b-12" value="创建JIRA" style="rounded=1;whiteSpace=wrap;html=1;absoluteArcSize=1;arcSize=14;strokeWidth=2;fillColor=#dae8fc;strokeColor=#6c8ebf;gradientColor=#7ea6e0;" vertex="1" parent="fHw0rM8FMFf9TJYtuR3b-10">
          <mxGeometry x="35" y="110" width="100" height="30" as="geometry" />
        </mxCell>
        <mxCell id="fHw0rM8FMFf9TJYtuR3b-13" style="edgeStyle=orthogonalEdgeStyle;rounded=0;orthogonalLoop=1;jettySize=auto;html=1;exitX=0.5;exitY=1;exitDx=0;exitDy=0;entryX=0.5;entryY=0;entryDx=0;entryDy=0;dashed=1;endArrow=blockThin;endFill=1;dashPattern=1 1;" edge="1" parent="fHw0rM8FMFf9TJYtuR3b-10" source="fHw0rM8FMFf9TJYtuR3b-14" target="fHw0rM8FMFf9TJYtuR3b-16">
          <mxGeometry relative="1" as="geometry" />
        </mxCell>
        <mxCell id="fHw0rM8FMFf9TJYtuR3b-14" value="创建/关联版本" style="rounded=1;whiteSpace=wrap;html=1;absoluteArcSize=1;arcSize=14;strokeWidth=2;fillColor=#dae8fc;strokeColor=#6c8ebf;gradientColor=#7ea6e0;" vertex="1" parent="fHw0rM8FMFf9TJYtuR3b-10">
          <mxGeometry x="35" y="170" width="100" height="30" as="geometry" />
        </mxCell>
        <mxCell id="fHw0rM8FMFf9TJYtuR3b-15" style="edgeStyle=orthogonalEdgeStyle;rounded=0;orthogonalLoop=1;jettySize=auto;html=1;exitX=0.5;exitY=1;exitDx=0;exitDy=0;entryX=0.5;entryY=0;entryDx=0;entryDy=0;dashed=1;endArrow=blockThin;endFill=1;dashPattern=1 1;" edge="1" parent="fHw0rM8FMFf9TJYtuR3b-10" source="fHw0rM8FMFf9TJYtuR3b-16" target="fHw0rM8FMFf9TJYtuR3b-17">
          <mxGeometry relative="1" as="geometry" />
        </mxCell>
        <mxCell id="fHw0rM8FMFf9TJYtuR3b-16" value="创建子任务" style="rounded=1;whiteSpace=wrap;html=1;absoluteArcSize=1;arcSize=14;strokeWidth=2;fillColor=#d5e8d4;strokeColor=#82b366;gradientColor=#97d077;" vertex="1" parent="fHw0rM8FMFf9TJYtuR3b-10">
          <mxGeometry x="35" y="230" width="100" height="30" as="geometry" />
        </mxCell>
        <mxCell id="fHw0rM8FMFf9TJYtuR3b-17" value="排期" style="rounded=1;whiteSpace=wrap;html=1;absoluteArcSize=1;arcSize=14;strokeWidth=2;gradientColor=#b3b3b3;fillColor=#f5f5f5;strokeColor=#666666;" vertex="1" parent="fHw0rM8FMFf9TJYtuR3b-10">
          <mxGeometry x="35" y="290" width="100" height="30" as="geometry" />
        </mxCell>
        <mxCell id="fHw0rM8FMFf9TJYtuR3b-18" value="状态更新" style="rounded=1;whiteSpace=wrap;html=1;absoluteArcSize=1;arcSize=14;strokeWidth=2;gradientColor=#b3b3b3;fillColor=#f5f5f5;strokeColor=#666666;" vertex="1" parent="fHw0rM8FMFf9TJYtuR3b-10">
          <mxGeometry x="35" y="410" width="100" height="30" as="geometry" />
        </mxCell>
        <mxCell id="fHw0rM8FMFf9TJYtuR3b-19" value="Vone" style="swimlane;html=1;startSize=20;" vertex="1" parent="fHw0rM8FMFf9TJYtuR3b-0">
          <mxGeometry x="360" width="180" height="720" as="geometry" />
        </mxCell>
        <mxCell id="fHw0rM8FMFf9TJYtuR3b-20" value="BUG修复" style="rounded=1;whiteSpace=wrap;html=1;absoluteArcSize=1;arcSize=14;strokeWidth=2;fillColor=#d5e8d4;strokeColor=#82b366;gradientColor=#97d077;" vertex="1" parent="fHw0rM8FMFf9TJYtuR3b-19">
          <mxGeometry x="40" y="540" width="100" height="30" as="geometry" />
        </mxCell>
        <mxCell id="fHw0rM8FMFf9TJYtuR3b-21" style="edgeStyle=orthogonalEdgeStyle;rounded=0;orthogonalLoop=1;jettySize=auto;html=1;dashed=1;endArrow=blockThin;endFill=1;dashPattern=1 1;" edge="1" parent="fHw0rM8FMFf9TJYtuR3b-19" source="fHw0rM8FMFf9TJYtuR3b-22" target="fHw0rM8FMFf9TJYtuR3b-24">
          <mxGeometry relative="1" as="geometry" />
        </mxCell>
        <mxCell id="fHw0rM8FMFf9TJYtuR3b-22" value="创建分支" style="rounded=1;whiteSpace=wrap;html=1;absoluteArcSize=1;arcSize=14;strokeWidth=2;fillColor=#d5e8d4;strokeColor=#82b366;gradientColor=#97d077;" vertex="1" parent="fHw0rM8FMFf9TJYtuR3b-19">
          <mxGeometry x="40" y="290" width="100" height="30" as="geometry" />
        </mxCell>
        <mxCell id="fHw0rM8FMFf9TJYtuR3b-23" style="edgeStyle=orthogonalEdgeStyle;rounded=0;orthogonalLoop=1;jettySize=auto;html=1;dashed=1;endArrow=blockThin;endFill=1;dashPattern=1 1;" edge="1" parent="fHw0rM8FMFf9TJYtuR3b-19" source="fHw0rM8FMFf9TJYtuR3b-24" target="fHw0rM8FMFf9TJYtuR3b-26">
          <mxGeometry relative="1" as="geometry" />
        </mxCell>
        <mxCell id="fHw0rM8FMFf9TJYtuR3b-24" value="开发" style="rounded=1;whiteSpace=wrap;html=1;absoluteArcSize=1;arcSize=14;strokeWidth=2;fillColor=#d5e8d4;strokeColor=#82b366;gradientColor=#97d077;" vertex="1" parent="fHw0rM8FMFf9TJYtuR3b-19">
          <mxGeometry x="40" y="350" width="100" height="30" as="geometry" />
        </mxCell>
        <mxCell id="fHw0rM8FMFf9TJYtuR3b-25" style="edgeStyle=orthogonalEdgeStyle;rounded=0;orthogonalLoop=1;jettySize=auto;html=1;entryX=0.5;entryY=0;entryDx=0;entryDy=0;dashed=1;endArrow=blockThin;endFill=1;dashPattern=1 1;" edge="1" parent="fHw0rM8FMFf9TJYtuR3b-19" source="fHw0rM8FMFf9TJYtuR3b-26" target="fHw0rM8FMFf9TJYtuR3b-28">
          <mxGeometry relative="1" as="geometry" />
        </mxCell>
        <mxCell id="fHw0rM8FMFf9TJYtuR3b-26" value="提测" style="rounded=1;whiteSpace=wrap;html=1;absoluteArcSize=1;arcSize=14;strokeWidth=2;fillColor=#d5e8d4;strokeColor=#82b366;gradientColor=#97d077;" vertex="1" parent="fHw0rM8FMFf9TJYtuR3b-19">
          <mxGeometry x="40" y="410" width="100" height="30" as="geometry" />
        </mxCell>
        <mxCell id="fHw0rM8FMFf9TJYtuR3b-27" style="edgeStyle=orthogonalEdgeStyle;rounded=0;orthogonalLoop=1;jettySize=auto;html=1;entryX=0.5;entryY=0;entryDx=0;entryDy=0;dashed=1;endArrow=blockThin;endFill=1;dashPattern=1 1;" edge="1" parent="fHw0rM8FMFf9TJYtuR3b-19" source="fHw0rM8FMFf9TJYtuR3b-28" target="fHw0rM8FMFf9TJYtuR3b-20">
          <mxGeometry relative="1" as="geometry" />
        </mxCell>
        <mxCell id="fHw0rM8FMFf9TJYtuR3b-28" value="测试" style="rounded=1;whiteSpace=wrap;html=1;absoluteArcSize=1;arcSize=14;strokeWidth=2;fillColor=#fff2cc;strokeColor=#d6b656;gradientColor=#ffd966;" vertex="1" parent="fHw0rM8FMFf9TJYtuR3b-19">
          <mxGeometry x="40" y="470" width="100" height="30" as="geometry" />
        </mxCell>
        <mxCell id="fHw0rM8FMFf9TJYtuR3b-29" value="Release Note" style="rounded=1;whiteSpace=wrap;html=1;absoluteArcSize=1;arcSize=14;strokeWidth=2;fillColor=#dae8fc;strokeColor=#6c8ebf;gradientColor=#7ea6e0;" vertex="1" parent="fHw0rM8FMFf9TJYtuR3b-19">
          <mxGeometry x="40" y="610" width="100" height="30" as="geometry" />
        </mxCell>
        <mxCell id="fHw0rM8FMFf9TJYtuR3b-30" value="" style="strokeWidth=2;html=1;shape=mxgraph.flowchart.annotation_2;align=left;labelPosition=right;pointerEvents=1;" vertex="1" parent="fHw0rM8FMFf9TJYtuR3b-19">
          <mxGeometry x="-30" y="310" width="60" height="240" as="geometry" />
        </mxCell>
        <mxCell id="fHw0rM8FMFf9TJYtuR3b-31" style="edgeStyle=orthogonalEdgeStyle;rounded=0;orthogonalLoop=1;jettySize=auto;html=1;exitX=1;exitY=0.25;exitDx=0;exitDy=0;entryX=0.43;entryY=0.067;entryDx=0;entryDy=0;entryPerimeter=0;dashed=1;dashPattern=1 1;" edge="1" parent="fHw0rM8FMFf9TJYtuR3b-0" source="fHw0rM8FMFf9TJYtuR3b-5" target="fHw0rM8FMFf9TJYtuR3b-12">
          <mxGeometry relative="1" as="geometry" />
        </mxCell>
        <mxCell id="fHw0rM8FMFf9TJYtuR3b-32" style="edgeStyle=orthogonalEdgeStyle;rounded=0;orthogonalLoop=1;jettySize=auto;html=1;exitX=1;exitY=0.5;exitDx=0;exitDy=0;dashed=1;endArrow=blockThin;endFill=1;dashPattern=1 1;" edge="1" parent="fHw0rM8FMFf9TJYtuR3b-0" source="fHw0rM8FMFf9TJYtuR3b-7" target="fHw0rM8FMFf9TJYtuR3b-12">
          <mxGeometry relative="1" as="geometry" />
        </mxCell>
        <mxCell id="fHw0rM8FMFf9TJYtuR3b-33" style="edgeStyle=orthogonalEdgeStyle;rounded=0;orthogonalLoop=1;jettySize=auto;html=1;exitX=0.5;exitY=1;exitDx=0;exitDy=0;entryX=0;entryY=0.5;entryDx=0;entryDy=0;dashed=1;endArrow=blockThin;endFill=1;dashPattern=1 1;" edge="1" parent="fHw0rM8FMFf9TJYtuR3b-0" source="fHw0rM8FMFf9TJYtuR3b-3" target="fHw0rM8FMFf9TJYtuR3b-17">
          <mxGeometry relative="1" as="geometry" />
        </mxCell>
        <mxCell id="fHw0rM8FMFf9TJYtuR3b-34" style="edgeStyle=orthogonalEdgeStyle;rounded=0;orthogonalLoop=1;jettySize=auto;html=1;exitX=1;exitY=0.5;exitDx=0;exitDy=0;entryX=0.5;entryY=0;entryDx=0;entryDy=0;dashed=1;endArrow=blockThin;endFill=1;dashPattern=1 1;" edge="1" parent="fHw0rM8FMFf9TJYtuR3b-0" source="fHw0rM8FMFf9TJYtuR3b-12" target="fHw0rM8FMFf9TJYtuR3b-22">
          <mxGeometry relative="1" as="geometry" />
        </mxCell>
        <mxCell id="fHw0rM8FMFf9TJYtuR3b-35" value="制品库" style="swimlane;html=1;startSize=20;" vertex="1" parent="BfjbEZ_vfMmPKyawNAkc-1">
          <mxGeometry x="640" y="-10" width="180" height="720" as="geometry" />
        </mxCell>
        <mxCell id="fHw0rM8FMFf9TJYtuR3b-36" style="edgeStyle=orthogonalEdgeStyle;rounded=0;orthogonalLoop=1;jettySize=auto;html=1;entryX=0.5;entryY=0;entryDx=0;entryDy=0;dashed=1;endArrow=blockThin;endFill=1;dashPattern=1 1;" edge="1" parent="fHw0rM8FMFf9TJYtuR3b-35" source="fHw0rM8FMFf9TJYtuR3b-37" target="fHw0rM8FMFf9TJYtuR3b-38">
          <mxGeometry relative="1" as="geometry" />
        </mxCell>
        <mxCell id="fHw0rM8FMFf9TJYtuR3b-37" value="打包" style="rounded=1;whiteSpace=wrap;html=1;absoluteArcSize=1;arcSize=14;strokeWidth=2;fillColor=#fff2cc;strokeColor=#d6b656;gradientColor=#ffd966;" vertex="1" parent="fHw0rM8FMFf9TJYtuR3b-35">
          <mxGeometry x="40" y="540" width="100" height="30" as="geometry" />
        </mxCell>
        <mxCell id="fHw0rM8FMFf9TJYtuR3b-38" value="发布" style="rounded=1;whiteSpace=wrap;html=1;absoluteArcSize=1;arcSize=14;strokeWidth=2;fillColor=#fff2cc;strokeColor=#d6b656;gradientColor=#ffd966;" vertex="1" parent="fHw0rM8FMFf9TJYtuR3b-35">
          <mxGeometry x="40" y="610" width="100" height="30" as="geometry" />
        </mxCell>
        <mxCell id="fHw0rM8FMFf9TJYtuR3b-39" style="edgeStyle=orthogonalEdgeStyle;rounded=0;orthogonalLoop=1;jettySize=auto;html=1;entryX=0;entryY=0.5;entryDx=0;entryDy=0;dashed=1;endArrow=blockThin;endFill=1;dashPattern=1 1;" edge="1" parent="BfjbEZ_vfMmPKyawNAkc-1" source="fHw0rM8FMFf9TJYtuR3b-20" target="fHw0rM8FMFf9TJYtuR3b-37">
          <mxGeometry relative="1" as="geometry" />
        </mxCell>
        <mxCell id="fHw0rM8FMFf9TJYtuR3b-40" style="edgeStyle=orthogonalEdgeStyle;rounded=0;orthogonalLoop=1;jettySize=auto;html=1;entryX=0;entryY=0.5;entryDx=0;entryDy=0;dashed=1;endArrow=blockThin;endFill=1;dashPattern=1 1;" edge="1" parent="BfjbEZ_vfMmPKyawNAkc-1" source="fHw0rM8FMFf9TJYtuR3b-29" target="fHw0rM8FMFf9TJYtuR3b-38">
          <mxGeometry relative="1" as="geometry" />
        </mxCell>
        <mxCell id="fHw0rM8FMFf9TJYtuR3b-41" value="产品操作" style="rounded=1;whiteSpace=wrap;html=1;absoluteArcSize=1;arcSize=14;strokeWidth=2;fillColor=#dae8fc;strokeColor=#6c8ebf;gradientColor=#7ea6e0;" vertex="1" parent="BfjbEZ_vfMmPKyawNAkc-1">
          <mxGeometry x="490" y="-50" width="100" height="30" as="geometry" />
        </mxCell>
        <mxCell id="fHw0rM8FMFf9TJYtuR3b-42" value="RD操作" style="rounded=1;whiteSpace=wrap;html=1;absoluteArcSize=1;arcSize=14;strokeWidth=2;fillColor=#d5e8d4;strokeColor=#82b366;gradientColor=#97d077;" vertex="1" parent="BfjbEZ_vfMmPKyawNAkc-1">
          <mxGeometry x="600" y="-50" width="100" height="30" as="geometry" />
        </mxCell>
        <mxCell id="fHw0rM8FMFf9TJYtuR3b-43" value="QA操作" style="rounded=1;whiteSpace=wrap;html=1;absoluteArcSize=1;arcSize=14;strokeWidth=2;fillColor=#fff2cc;strokeColor=#d6b656;gradientColor=#ffd966;" vertex="1" parent="BfjbEZ_vfMmPKyawNAkc-1">
          <mxGeometry x="710" y="-50" width="100" height="30" as="geometry" />
        </mxCell>
      </root>
    </mxGraphModel>
  </diagram>
</mxfile>
